<?xml version="1.0" encoding="UTF-8"?>
<svg width="240px" height="240px" viewBox="0 0 240 240" version="1.1" xmlns="http://www.w3.org/2000/svg" xmlns:xlink="http://www.w3.org/1999/xlink">
    <!-- Generator: Sketch 52.4 (67378) - http://www.bohemiancoding.com/sketch -->
    <title>icon_smoothsteer_01</title>
    <desc>Created with Sketch.</desc>
    <g id="icon_smoothsteer_01" stroke="none" stroke-width="1" fill="none" fill-rule="evenodd">
        <path d="M44,114 C86.0316302,122.002341 113.380779,149.351489 126.047445,196.047445" id="Path-2" stroke="#a065ff" stroke-width="5"></path>
        <path d="M49.7949219,51.5 C121.441224,57.9085863 169.718803,78.6154154 194.627659,113.620487" id="Path-3" stroke="#a065ff" stroke-width="5" stroke-linecap="round"></path>
        <path d="M45,82 C100.366243,85.1229743 149.977645,118.055267 193.834207,180.796877" id="Path-3-Copy" stroke="#F5A623" stroke-width="5" stroke-linecap="round" stroke-dasharray="12"></path>
        <path d="M70.638852,43.5 L169.361148,43.5 C177.715761,43.5 181.524799,44.2355591 185.475855,46.3486072 C188.996517,48.2314779 191.768522,51.0034827 193.651393,54.5241447 C195.764441,58.4752013 196.5,62.2842387 196.5,70.638852 L196.5,169.361148 C196.5,177.715761 195.764441,181.524799 193.651393,185.475855 C191.768522,188.996517 188.996517,191.768522 185.475855,193.651393 C181.524799,195.764441 177.715761,196.5 169.361148,196.5 L70.638852,196.5 C62.2842387,196.5 58.4752013,195.764441 54.5241447,193.651393 C51.0034827,191.768522 48.2314779,188.996517 46.3486072,185.475855 C44.2355591,181.524799 43.5,177.715761 43.5,169.361148 L43.5,70.638852 C43.5,62.2842387 44.2355591,58.4752013 46.3486072,54.5241447 C48.2314779,51.0034827 51.0034827,48.2314779 54.5241447,46.3486072 C58.4752013,44.2355591 62.2842387,43.5 70.638852,43.5 Z" id="Rectangle-Copy" stroke="#a065ff" stroke-width="3"></path>
    </g>
</svg>