<svg xmlns="http://www.w3.org/2000/svg" width="250" height="150" viewBox="0 0 156 105" xmlns:xlink="http://www.w3.org/1999/xlink">
  <defs>
    <polygon id="a" points=".526 .664 153.38 .664 153.38 1.664 .526 1.664"/>
  </defs>
  <g fill="none" fill-rule="evenodd" transform="translate(1 1)">
    <polyline stroke="#D1D1D1" stroke-width="2" points="49.67 4 153 4 153 103 2 103 2 48.205" opacity=".396" stroke-linejoin="round"/>
    <polyline stroke="#D1D1D1" stroke-width="2" points="2 18 2 4 9 4" opacity=".396" stroke-linejoin="round"/>
    <path stroke="#D1D1D1" stroke-width="2" d="M101.104363,60 C101.104363,60 115.543746,74.4177456 94.8263173,75.0449776 C74.1088884,75.6722097 23.8845202,82.5680802 22,102" stroke-linejoin="round"/>
    <path stroke="#D1D1D1" stroke-width="2" d="M107.167345,59 C107.167345,59 128.779873,74.7149011 117.974853,82.2572659 C107.167345,89.7996308 83.6479755,91.6864528 86.1908455,103" stroke-linejoin="round"/>
    <g transform="translate(1 58)">
      <mask id="b" fill="white">
        <use xlink:href="#a"/>
      </mask>
      <path stroke="#D1D1D1" stroke-width="2" d="M0.525587097,0.6636 L153.380523,0.6636" stroke-linejoin="round" mask="url(#b)"/>
    </g>
    <path fill="#FFFFFF" stroke="#D1D1D1" stroke-width="2" d="M10.1676,21.2833002 C10.0763333,20.515515 10.0282333,19.731657 10.0282333,18.9366717 C10.0282333,12.1799146 14.6051333,4.40068025 21.1430333,1.62503164 C29.5420333,-1.94065683 37.2158333,0.763282377 42.2638667,5.84105025 C44.5973333,8.18767879 46.3153667,11.14631 47.4488,14.3596333 L47.4488,14.3583969 C51.726,8.55364404 63.7411333,12.3258061 62.0021333,20.8901349 L61.9811667,21.0397355 C66.3311333,21.7889752 74,24.8687706 74,34.5198678 C74,46.9948319 61.6444667,48 61.6444667,48 L13.6665667,47.9505452 C6.6008,47.943127 0.476066667,42.5711033 0.0333,35.5015448 C0.0111,35.1454705 0,34.7807416 0,34.4048854 C0,26.1558308 5.38473333,22.5048329 10.1663667,21.2783548 L10.1676,21.2833002 Z" stroke-linejoin="round"/>
    <path fill="#FFFFFF" d="M112.709867,25.9812176 C112.676411,25.6927052 112.659064,25.3990865 112.659064,25.1016379 C112.659064,22.5675804 114.329371,19.6492654 116.713401,18.6088337 C119.778935,17.2722301 122.579302,18.2871297 124.420606,20.1905451 C125.273107,21.0701248 125.900092,22.1782164 126.312712,23.3846065 C127.87274,21.2079979 132.256677,22.6211978 131.623497,25.8331316 L131.614823,25.8905787 C133.202111,26.1701548 136,27.3254808 136,30.9446511 C136,35.623402 131.492152,36 131.492152,36 L113.98614,35.980851 C111.407572,35.9782977 109.173474,33.9638178 109.012391,31.3135894 C109.003717,31.1795461 109,31.0429495 109,30.9012466 C109,27.8093134 110.965213,26.4382415 112.708628,25.9786644 L112.709867,25.9812176 Z"/>
    <path stroke="#D1D1D1" stroke-width="2" d="M112.709867,25.9812176 C112.676411,25.6927052 112.659064,25.3990865 112.659064,25.1016379 C112.659064,22.5675804 114.329371,19.6492654 116.713401,18.6088337 C119.778935,17.2722301 122.579302,18.2871297 124.420606,20.1905451 C125.273107,21.0701248 125.900092,22.1782164 126.312712,23.3846065 C127.87274,21.2079979 132.256677,22.6211978 131.623497,25.8331316 L131.614823,25.8905787 C133.202111,26.1701548 136,27.3254808 136,30.9446511 C136,35.623402 131.492152,36 131.492152,36 L113.98614,35.980851 C111.407572,35.9782977 109.173474,33.9638178 109.012391,31.3135894 C109.003717,31.1795461 109,31.0429495 109,30.9012466 C109,27.8093134 110.965213,26.4382415 112.708628,25.9786644 L112.709867,25.9812176 Z" stroke-linejoin="round"/>
  </g>
</svg>
